<?xml version="1.0" encoding="utf-8"?>
<!-- Generator: Adobe Illustrator 17.0.0, SVG Export Plug-In . SVG Version: 6.00 Build 0)  -->
<!DOCTYPE svg PUBLIC "-//W3C//DTD SVG 1.1//EN" "http://www.w3.org/Graphics/SVG/1.1/DTD/svg11.dtd">
<svg version="1.1" id="Layer_1" xmlns="http://www.w3.org/2000/svg" xmlns:xlink="http://www.w3.org/1999/xlink" x="0px" y="0px"
	 width="1926.212px" height="1174.802px" viewBox="-6.503 812.332 1926.212 1174.802"
	 enable-background="new -6.503 812.332 1926.212 1174.802" xml:space="preserve">
<title>nav-button</title>
<path fill="#FFFFFF" d="M1870.338,1517.213c-3.705,99.654-48.68,193.28-124.155,258.456
	c-136.17,118.281-356.446,154.059-522.52,164.205c8.789-14.514,13.579-31.095,13.884-48.06v-91.581
	c0.221-18.601-5.38-36.806-16.02-52.065c42.775-15.864,71.411-56.377,72.09-101.994v-114.81c0.297-19.363-6.118-38.231-18.156-53.4
	c40.967-17.423,67.705-57.478,68.085-101.994v-102.795c-0.306-33.488-16.7-64.786-44.055-84.105l93.984,6.141
	c13.732,1.889,26.395-7.712,28.284-21.444s-7.712-26.395-21.444-28.284c-1.558-0.214-3.133-0.282-4.704-0.201l-494.485-32.574
	c-49.337-3.852-92.495-34.679-112.14-80.1l-16.02-40.05c-6.244-17.063-8.348-35.365-6.141-53.4c4.04-4.346,6.241-10.087,6.141-16.02
	c0.571-2.815-0.111-5.739-1.869-8.01c3.321-10.23,7.335-20.221,12.015-29.904c5.541-11.172,15.853-19.225,28.035-21.894h686.725
	C1540.058,878.548,1895.703,1016.587,1870.338,1517.213z M799.132,1877.664v-61.944c0.29-34.09,27.854-61.654,61.944-61.944h278.481
	c25.066-0.302,45.632,19.774,45.933,44.84c0.007,0.539,0.003,1.079-0.009,1.618v92.115c0.295,27.426-21.698,49.899-49.124,50.194
	c-0.268,0.003-0.536,0.004-0.805,0.002h-106.8c-21.894-1.869-36.045-1.869-36.045-1.869c-4.096-0.309-8.207,0.33-12.015,1.869
	h-120.15C826.252,1940.312,799.479,1912.025,799.132,1877.664z M743.062,1635.227v-83.838c0.433-37.422,30.663-67.652,68.085-68.085
	h384.481c25.064-0.446,45.745,19.51,46.191,44.575c0.01,0.539,0.01,1.078,0,1.616v114.009
	c-0.146,33.118-26.957,59.929-60.075,60.075H811.147c-37.305,0.445-67.907-29.436-68.352-66.74c-0.006-0.537-0.006-1.074,0-1.612
	L743.062,1635.227z M692.866,1365.023v-80.1c0.577-38.497,31.722-69.524,70.221-69.954h474.46c29.492,0,53.4,23.908,53.4,53.4
	c0,0,0,0,0,0v101.994c0.148,34.505-27.705,62.597-62.21,62.745c-0.178,0.001-0.357,0.001-0.535,0H762.82
	C724.73,1433.554,693.452,1403.111,692.866,1365.023z M50.196,1056.637c-0.742-58.979,46.469-107.393,105.448-108.135
	c0.896-0.011,1.791-0.011,2.687,0h556.696c-0.885,21.821,2.564,43.6,10.146,64.08l15.753,40.05
	c27.011,62.717,86.076,105.711,154.059,112.14l30.171,2.136H158.331C98.626,1164.918,51.018,1116.37,50.196,1056.637z
	 M1509.887,814.201l-4.005-1.869H811.681c-28.568,2.57-54.035,19.049-68.085,44.055c-8.035,12.359-14.156,25.862-18.156,40.05
	H158.331c-87.37-3.59-161.108,64.327-164.698,151.697s64.327,161.108,151.697,164.698c4.332,0.178,8.669,0.178,13.001,0h507.301
	c-14.363,20.59-22.01,45.117-21.894,70.221v80.1c-0.095,49.724,30.649,94.297,77.163,111.873
	c-16.981,21.042-26.386,47.188-26.7,74.226v84.105c-0.626,49.842,30.981,94.394,78.231,110.271
	c-15.279,19.435-23.725,43.365-24.03,68.085v61.944c-0.148,61.786,49.82,111.993,111.606,112.14c0.178,0,0.356,0,0.535,0h166.341
	c22.695,1.335,54.735,1.335,94.518,1.335c174.084,0,476.596-24.03,654.685-180.225c86.884-73.305,138.523-180.078,142.044-293.7
	C1949.103,958.648,1513.892,816.337,1509.887,814.201z"/>
</svg>
