<svg xmlns="http://www.w3.org/2000/svg" width="1926.212" height="1174.802" viewBox="-6.503 812.332 1926.212 1174.802"><title>nav-button</title><path fill="#FFF" d="M1870.338 1517.213c-3.705 99.654-48.68 193.28-124.155 258.456-136.17 118.28-356.446 154.058-522.52 164.204 8.79-14.514 13.58-31.095 13.884-48.06v-91.58c.22-18.602-5.38-36.807-16.02-52.066 42.775-15.864 71.41-56.377 72.09-101.994v-114.81c.297-19.363-6.118-38.23-18.156-53.4 40.968-17.423 67.706-57.478 68.086-101.994v-102.795c-.306-33.488-16.7-64.786-44.055-84.105l93.985 6.14c13.732 1.89 26.395-7.71 28.284-21.443s-7.713-26.395-21.445-28.284c-1.558-.214-3.133-.282-4.704-.2l-494.484-32.575c-49.337-3.852-92.495-34.68-112.14-80.1l-16.02-40.05c-6.244-17.063-8.348-35.365-6.14-53.4 4.04-4.346 6.24-10.087 6.14-16.02.57-2.815-.11-5.74-1.87-8.01 3.322-10.23 7.336-20.22 12.016-29.904 5.54-11.172 15.853-19.225 28.035-21.894h686.725c42.186 15.218 397.83 153.257 372.466 653.883zm-1071.206 360.45v-61.943c.29-34.09 27.854-61.654 61.944-61.944h278.48c25.067-.302 45.633 19.774 45.934 44.84.007.54.003 1.08-.01 1.618v92.115c.296 27.425-21.697 49.898-49.123 50.193-.268.003-.536.004-.805.002h-106.8c-21.894-1.87-36.045-1.87-36.045-1.87-4.096-.308-8.207.33-12.015 1.87h-120.15c-34.29-2.233-61.063-30.52-61.41-64.88zm-56.07-242.436v-83.838c.433-37.423 30.663-67.653 68.085-68.086h384.48c25.065-.446 45.746 19.51 46.192 44.575.01.538.01 1.077 0 1.615v114.01c-.147 33.117-26.958 59.928-60.076 60.074H811.147c-37.305.444-67.907-29.437-68.352-66.74-.006-.538-.006-1.075 0-1.613h.267zm-50.196-270.204v-80.1c.577-38.497 31.722-69.524 70.22-69.954h474.46c29.493 0 53.4 23.907 53.4 53.4v101.993c.15 34.505-27.704 62.597-62.21 62.745H762.82c-38.09.446-69.368-29.997-69.954-68.085zm-642.67-308.386c-.742-58.98 46.47-107.393 105.448-108.135.896-.01 1.79-.01 2.687 0h556.697c-.885 21.82 2.564 43.6 10.146 64.08l15.753 40.05c27.01 62.717 86.076 105.71 154.06 112.14l30.17 2.136H158.33c-59.704-1.99-107.312-50.538-108.134-110.27zM1509.886 814.2l-4.004-1.868h-694.2c-28.57 2.57-54.036 19.05-68.086 44.055-8.035 12.36-14.156 25.862-18.156 40.05H158.33c-87.37-3.59-161.107 64.327-164.697 151.697s64.327 161.108 151.697 164.698c4.332.178 8.67.178 13 0h507.302c-14.363 20.59-22.01 45.117-21.894 70.22v80.1c-.095 49.725 30.65 94.298 77.163 111.874-16.98 21.042-26.385 47.188-26.7 74.226v84.105c-.625 49.842 30.982 94.394 78.232 110.27-15.28 19.436-23.725 43.366-24.03 68.086v61.944c-.148 61.786 49.82 111.993 111.606 112.14h166.875c22.696 1.335 54.736 1.335 94.52 1.335 174.083 0 476.595-24.03 654.684-180.225 86.884-73.305 138.523-180.078 142.044-293.7 30.973-554.56-404.238-696.87-408.243-699.006z"/></svg>